<svg width="507" height="421" viewBox="0 0 507 421" fill="none" xmlns="http://www.w3.org/2000/svg">
<g opacity="0.07">
<path d="M449.387 -95.3488C389.929 -182.094 290.11 -239 177 -239C-5.25397 -239 -153 -91.2541 -153 91C-153 117.515 -149.873 143.3 -143.967 168.006L24.0818 -0.0431824C40.191 -16.1524 66.309 -16.1524 82.4182 -0.0431824L218.25 135.789L449.387 -95.3488Z" fill="#8794BA"/>
<path d="M488.609 -17.8981L247.418 223.293C231.309 239.402 205.191 239.402 189.082 223.293L53.25 87.4614L-111.186 251.897C-54.7343 352.793 53.1675 421 177 421C359.254 421 507 273.254 507 91C507 52.8414 500.523 16.1957 488.609 -17.8981Z" fill="#8794BA"/>
</g>
</svg>
